# xmcd CD database file
#
# Track frame offsets:
#	150
#	23158
#	44178
#	67122
#	85578
#	102924
#	121634
#	141000
#	159607
#	173330
#	194317
#	210239
#	231549
#	245750
#	266333
#	279196
#	298739
#
# Disc length: 4280 seconds
#
# Revision: 7
# Processed by: cddbd v1.5.2PL0 Copyright (c) Steve Scherf et al.
# Submitted via: CDex 1.70beta2
#
DISCID=ef10b611
DTITLE=Alan Jackson - Good Time
DYEAR=2008
DGENRE=Country
TTITLE0=Good Time
TTITLE1=Small Town Southern Man
TTITLE2=I Wish I Could Back Up
TTITLE3=Country Boy
TTITLE4=Right Where I Want You
TTITLE5=1976
TTITLE6=When The Love Factor's High
TTITLE7=Long Long Way
TTITLE8=Sissy's Song
TTITLE9=I Still Like Bologna
TTITLE10=Never Loved Before (with Martina McBride)
TTITLE11=Nothing Left To Do
TTITLE12=Listen To Your Senses
TTITLE13=This Time
TTITLE14=Laid Back 'n Low Key (Cay)
TTITLE15=If You Want To Make Me Happy
TTITLE16=If Jesus Walked The World Today
EXTD=YEAR: 2008
EXTT0=
EXTT1=
EXTT2=
EXTT3=
EXTT4=
EXTT5=
EXTT6=
EXTT7=
EXTT8=
EXTT9=
EXTT10=
EXTT11=
EXTT12=
EXTT13=
EXTT14=
EXTT15=
EXTT16=
PLAYORDER=
